<svg width="20" height="20" viewBox="0 0 20 20" fill="none" xmlns="http://www.w3.org/2000/svg">
<path fill-rule="evenodd" clip-rule="evenodd" d="M10 1.52075C5.31971 1.52075 1.52084 5.31961 1.52084 9.99992C1.52084 14.6802 5.31971 18.4791 10 18.4791C14.6803 18.4791 18.4792 14.6802 18.4792 9.99992C18.4792 5.31961 14.6803 1.52075 10 1.52075ZM0.145844 9.99992C0.145844 4.56022 4.56031 0.145752 10 0.145752C15.4397 0.145752 19.8542 4.56022 19.8542 9.99992C19.8542 15.4396 15.4397 19.8541 10 19.8541C4.56031 19.8541 0.145844 15.4396 0.145844 9.99992Z" fill="#F1F1F1"/>
<path fill-rule="evenodd" clip-rule="evenodd" d="M9.66086 5.19653C10.0406 5.19653 10.3484 5.50434 10.3484 5.88403V9.64237C10.3484 9.78312 10.4021 9.98713 10.5216 10.1967C10.6411 10.4063 10.7893 10.5562 10.9097 10.6276L10.9115 10.6287L10.9115 10.6287L13.7532 12.3245C14.0792 12.5191 14.1858 12.9411 13.9912 13.2672C13.7966 13.5932 13.3746 13.6998 13.0485 13.5052L10.2087 11.8105C10.2084 11.8103 10.2081 11.8101 10.2077 11.8099C9.8336 11.5879 9.5329 11.2386 9.32719 10.8778C9.12128 10.5168 8.97336 10.0791 8.97336 9.64237V5.88403C8.97336 5.50434 9.28116 5.19653 9.66086 5.19653Z" fill="#F1F1F1"/>
</svg>
